<?xml version="1.0" encoding="UTF-8"?>
<svg version="1.1" xmlns="http://www.w3.org/2000/svg" width="1562" height="1562">
<path d="M0 0 C515.46 0 1030.92 0 1562 0 C1562 515.46 1562 1030.92 1562 1562 C1046.54 1562 531.08 1562 0 1562 C0 1046.54 0 531.08 0 0 Z " fill="#FEFEFE" transform="translate(0,0)"/>
<path d="M0 0 C170.28 0 340.56 0 516 0 C516 80.52 516 161.04 516 244 C345.72 244 175.44 244 0 244 C0 163.48 0 82.96 0 0 Z " fill="#010101" transform="translate(434,662)"/>
<path d="M0 0 C243.21 0 486.42 0 737 0 C737 100.65 737 201.3 737 305 C493.79 305 250.58 305 0 305 C0 204.35 0 103.7 0 0 Z M30 33 C30 113.52 30 194.04 30 277 C200.28 277 370.56 277 546 277 C546 196.48 546 115.96 546 33 C375.72 33 205.44 33 30 33 Z " fill="#FCFCFC" transform="translate(404,629)"/>
<path d="M0 0 C243.21 0 486.42 0 737 0 C737 100.65 737 201.3 737 305 C493.79 305 250.58 305 0 305 C0 204.35 0 103.7 0 0 Z M9 9 C9 103.71 9 198.42 9 296 C246.6 296 484.2 296 729 296 C729 201.29 729 106.58 729 9 C491.4 9 253.8 9 9 9 Z " fill="#020202" transform="translate(404,629)"/>
<path d="M0 0 C5.61 0 11.22 0 17 0 C18.87094288 9.05277551 20.7377288 18.10637117 22.59532166 27.16189575 C23.33449764 30.76434955 24.0750365 34.36649228 24.82226562 37.96728516 C25.53262325 41.39379705 26.23598386 44.82166899 26.9375 48.25 C27.14850342 49.25861084 27.35950684 50.26722168 27.5769043 51.30639648 C28.51865214 55.94481427 29.26372042 60.23704944 29 65 C29.66 65 30.32 65 31 65 C31.03520752 64.37053467 31.07041504 63.74106934 31.10668945 63.0925293 C31.6789918 55.11413067 33.30418179 47.5740843 35.1875 39.8125 C35.49995291 38.50191484 35.81187595 37.19120325 36.12329102 35.88037109 C38.98161042 23.895628 41.96471204 11.94102296 45 0 C50.61 0 56.22 0 62 0 C70.06982331 37.05850899 70.06982331 37.05850899 72.4375 48.8125 C72.58864258 49.55467773 72.73978516 50.29685547 72.89550781 51.06152344 C73.81434624 55.69481509 74.45917884 60.31113307 75 65 C75.11480713 64.44054687 75.22961426 63.88109375 75.34790039 63.3046875 C77.89627326 50.9151385 80.49762029 38.53652729 83.16989136 26.1730957 C83.47058323 24.77861771 83.76954567 23.38376555 84.06668091 21.98852539 C85.66207927 14.5059757 87.3903185 7.20430257 90 0 C94.95 0 99.9 0 105 0 C103.89679494 8.27403797 101.95047513 15.96851203 99.59521484 23.95751953 C97.20853206 32.11308262 95.09064939 40.32768786 93 48.5625 C89.9694989 60.47846366 86.64183288 72.25508896 83 84 C77.39 84 71.78 84 66 84 C62.77789973 71.08190213 59.92612345 58.10289234 57.25 45.0625 C57.09570526 44.31212463 56.94141052 43.56174927 56.78244019 42.78863525 C54.01093574 29.28698284 54.01093574 29.28698284 53 23 C49.44073894 35.90554999 46.34231522 48.91366879 43.25 61.9375 C42.7384651 64.08533025 42.22674766 66.23311704 41.71484375 68.38085938 C40.47446028 73.58674154 39.23653846 78.79320326 38 84 C32.06 84 26.12 84 20 84 C16.91088089 71.84070138 13.89546252 59.67370945 11.125 47.4375 C8.50729363 35.8806993 5.57521347 24.41735843 2.53955078 12.96459961 C2.20938965 11.7091333 1.87922852 10.45366699 1.5390625 9.16015625 C1.24209473 8.04261963 0.94512695 6.92508301 0.63916016 5.77368164 C0 3 0 3 0 0 Z " fill="#050505" transform="translate(991,738)"/>
<path d="M0 0 C44.33333333 0 44.33333333 0 52.9375 7.375 C56.84826059 11.68143755 59.32285606 16.17656216 60 22 C60.07605469 22.62390625 60.15210938 23.2478125 60.23046875 23.890625 C60.73991589 31.54610097 58.19620819 39.05978135 53.35546875 45.02734375 C49.53716433 48.55259546 46.01926192 49.6127449 41 51 C41.60585938 51.90355225 42.21171875 52.80710449 42.8359375 53.73803711 C45.07458325 57.07796031 47.3102147 60.41989171 49.54492188 63.76245117 C50.51414669 65.21124713 51.48419768 66.65949074 52.45507812 68.10717773 C53.84720883 70.18329918 55.23639536 72.26136281 56.625 74.33984375 C57.06247559 74.99089584 57.49995117 75.64194794 57.95068359 76.31272888 C61 80.88612829 61 80.88612829 61 82 C56.28703514 83.23145211 52.67832846 83.47631687 48 82 C42.01349755 76.28134223 37.95832424 67.96697925 34.328125 60.61328125 C32.73405202 57.6779587 31.73302915 55.94562377 29 54 C23.02555492 52.56094173 17.13732119 52.91040407 11 53 C11 62.57 11 72.14 11 82 C7.37 82 3.74 82 0 82 C0 54.94 0 27.88 0 0 Z " fill="#F2F2F2" transform="translate(753,740)"/>
<path d="M0 0 C0.91652344 0.01160156 1.83304688 0.02320313 2.77734375 0.03515625 C3.69644531 0.04417969 4.61554687 0.05320312 5.5625 0.0625 C6.27277344 0.07410156 6.98304688 0.08570313 7.71484375 0.09765625 C14.58346262 15.49470746 20.99491062 31.05646408 27.29150391 46.69360352 C30.97080007 55.82648909 34.67910034 64.94147094 38.63330078 73.95996094 C39.88508589 76.85920627 40.71484375 78.90087244 40.71484375 82.09765625 C37.08484375 82.09765625 33.45484375 82.09765625 29.71484375 82.09765625 C28.5439037 79.30771235 27.37793448 76.51587028 26.21484375 73.72265625 C25.88097656 72.92859375 25.54710937 72.13453125 25.203125 71.31640625 C24.88730469 70.55585937 24.57148437 69.7953125 24.24609375 69.01171875 C23.95283203 68.30998535 23.65957031 67.60825195 23.35742188 66.88525391 C22.71484375 65.09765625 22.71484375 65.09765625 22.71484375 63.09765625 C9.51484375 63.42765625 -3.68515625 63.75765625 -17.28515625 64.09765625 C-20.75015625 73.00765625 -20.75015625 73.00765625 -24.28515625 82.09765625 C-27.91515625 82.09765625 -31.54515625 82.09765625 -35.28515625 82.09765625 C-34.68915229 77.3938511 -33.32994669 73.33463943 -31.46875 69.0078125 C-31.18033737 68.32229309 -30.89192474 67.63677368 -30.59477234 66.93048096 C-29.64309906 64.6712528 -28.68281437 62.41578979 -27.72265625 60.16015625 C-26.36176994 56.93738145 -25.00529119 53.71275554 -23.6484375 50.48828125 C-23.29581848 49.65206741 -22.94319946 48.81585358 -22.57989502 47.95429993 C-19.93741423 41.67879816 -17.34054461 35.38553129 -14.765625 29.08203125 C-14.39922409 28.18532211 -14.03282318 27.28861298 -13.65531921 26.36473083 C-12.21607746 22.84002159 -10.77809664 19.31480842 -9.34371948 15.78811646 C-8.34972569 13.34486521 -7.35281459 10.90282189 -6.35546875 8.4609375 C-6.0582341 7.72723938 -5.76099945 6.99354126 -5.45475769 6.23760986 C-2.95477006 0.12627222 -2.95477006 0.12627222 0 0 Z " fill="#F7F7F7" transform="translate(689.28515625,739.90234375)"/>
<path d="M0 0 C6.85167736 5.79203357 12.55120622 12.91662388 13.9765625 21.94921875 C10.12219369 22.63924138 6.80120956 22.89242439 2.9765625 21.94921875 C0.70919024 19.38188284 -0.72497715 16.73558754 -2.34375 13.72265625 C-5.85053192 7.93238843 -11.70253128 5.7012501 -18.0234375 3.94921875 C-27.72752757 3.03826168 -36.96763196 2.7256547 -45.0234375 8.94921875 C-51.71131729 14.79463306 -55.46840645 21.69645064 -56.40234375 30.53515625 C-56.70909012 40.29166967 -55.38780535 48.89511245 -49.3984375 56.82421875 C-44.61422279 61.91432954 -37.02711558 65.5760397 -30.08984375 66.22265625 C-19.68794221 66.52416064 -10.7999219 64.83921893 -2.9609375 57.57421875 C-0.02234311 54.3130957 1.54411664 51.07803329 2.9765625 46.94921875 C6.6065625 46.94921875 10.2365625 46.94921875 13.9765625 46.94921875 C13.54571239 52.69388683 11.23922803 56.3832602 7.9765625 60.94921875 C7.5434375 61.56152344 7.1103125 62.17382812 6.6640625 62.8046875 C0.35087497 70.9293294 -8.97062907 75.44253247 -19.0234375 76.94921875 C-31.96649049 78.25064629 -42.09712482 76.39649972 -52.8984375 68.69921875 C-60.83736538 62.05234062 -65.19250419 52.96779645 -67.7734375 43.07421875 C-68.99046371 27.86139115 -66.23483816 15.91588196 -56.43359375 4.01953125 C-41.78032188 -12.04735038 -17.14345856 -11.62831492 0 0 Z " fill="#F5F5F5" transform="translate(547.0234375,746.05078125)"/>
<path d="M0 0 C3.3 0 6.6 0 10 0 C10 11.55 10 23.1 10 35 C12.825625 34.896875 15.65125 34.79375 18.5625 34.6875 C19.43849854 34.66260498 20.31449707 34.63770996 21.21704102 34.61206055 C26.48655776 34.3674788 30.37047223 33.59230665 35 31 C38.0398665 27.65781035 39.79287263 24.56413432 41.32421875 20.33203125 C41.71287109 19.27435547 42.10152344 18.21667969 42.50195312 17.12695312 C42.89318359 16.03318359 43.28441406 14.93941406 43.6875 13.8125 C44.48240944 11.63126851 45.27795013 9.45026693 46.07421875 7.26953125 C46.42057373 6.30635986 46.76692871 5.34318848 47.1237793 4.35083008 C48 2 48 2 49 0 C52.63 0 56.26 0 60 0 C57.83340091 6.62128881 55.51630686 13.16738464 53.0625 19.6875 C52.72798828 20.59822266 52.39347656 21.50894531 52.04882812 22.44726562 C49.41281903 29.44107011 46.55334184 34.84332544 41 40 C42.28151993 43.37114863 43.73664128 46.46768696 45.5390625 49.58984375 C46.03374023 50.45053467 46.52841797 51.31122559 47.03808594 52.19799805 C47.56176758 53.10203369 48.08544922 54.00606934 48.625 54.9375 C49.15899414 55.86667236 49.69298828 56.79584473 50.24316406 57.75317383 C52.67454046 61.98249679 55.11782334 66.20476614 57.5703125 70.421875 C57.94333496 71.06648682 58.31635742 71.71109863 58.70068359 72.37524414 C59.68728633 74.07918833 60.67939593 75.77994059 61.671875 77.48046875 C63 80 63 80 63 82 C59.04 82 55.08 82 51 82 C50.53625977 81.15816162 50.07251953 80.31632324 49.59472656 79.44897461 C47.85829842 76.29714081 46.12114768 73.14570575 44.38378906 69.99438477 C43.63489686 68.63576788 42.88619528 67.27704591 42.13769531 65.91821289 C41.05585187 63.95430643 39.97330161 61.99079099 38.890625 60.02734375 C38.56128967 59.42913315 38.23195435 58.83092255 37.89263916 58.21458435 C36.93244098 56.47416849 35.96624874 54.73706398 35 53 C34.6842804 52.3523317 34.36856079 51.70466339 34.04327393 51.03736877 C32.16123835 47.20800489 32.16123835 47.20800489 28.61816406 45.11352539 C27.32990723 45.10567017 27.32990723 45.10567017 26.015625 45.09765625 C24.75153809 45.06297241 24.75153809 45.06297241 23.46191406 45.02758789 C22.40198242 45.03910889 21.34205078 45.05062988 20.25 45.0625 C16.8675 45.041875 13.485 45.02125 10 45 C10 57.21 10 69.42 10 82 C6.7 82 3.4 82 0 82 C0 54.94 0 27.88 0 0 Z " fill="#F9F9F9" transform="translate(842,740)"/>
<path d="M0 0 C3.3 0 6.6 0 10 0 C10 23.76 10 47.52 10 72 C23.2 72 36.4 72 50 72 C50 75.3 50 78.6 50 82 C33.5 82 17 82 0 82 C0 54.94 0 27.88 0 0 Z " fill="#FBFBFB" transform="translate(589,740)"/>
<path d="M0 0 C6.435 -0.1546875 6.435 -0.1546875 13 -0.3125 C14.33675781 -0.35802002 15.67351563 -0.40354004 17.05078125 -0.45043945 C24.1848055 -0.53320695 29.68978636 -0.13891643 35 5 C37.95696307 9.89747008 38.79294099 14.4053608 38 20 C36.28007213 25.73309289 34.25067361 28.15588513 29 31 C25.76248322 32.07917226 23.42248229 32.11425601 20.01953125 32.09765625 C18.97128174 32.09515869 17.92303223 32.09266113 16.84301758 32.09008789 C15.51294678 32.08098389 14.18287598 32.07187988 12.8125 32.0625 C8.584375 32.041875 4.35625 32.02125 0 32 C0 21.44 0 10.88 0 0 Z " fill="#010101" transform="translate(764,750)"/>
<path d="M0 0 C0.66 0 1.32 0 2 0 C3.65748983 4.10628995 5.31138922 8.21400314 6.9621582 12.32299805 C7.52272731 13.7169369 8.08422923 15.11050103 8.64672852 16.50366211 C9.46103167 18.52096245 10.27182716 20.53964416 11.08203125 22.55859375 C11.56905518 23.76829834 12.0560791 24.97800293 12.55786133 26.22436523 C14.16661416 30.43620923 15.57424702 34.72274107 17 39 C6.44 39 -4.12 39 -15 39 C-13.17569626 32.91898752 -11.4973699 27.4453346 -9.08203125 21.6796875 C-8.81992355 21.05015167 -8.55781586 20.42061584 -8.2877655 19.77200317 C-7.46730906 17.80436025 -6.64006951 15.83966018 -5.8125 13.875 C-5.24759029 12.52362827 -4.68313388 11.17206696 -4.11914062 9.8203125 C-2.7513051 6.54467601 -1.37738003 3.27163651 0 0 Z " fill="#0C0C0C" transform="translate(691,755)"/>
<path d="M0 0 C0.66 0.33 1.32 0.66 2 1 C-0.84936103 4.00765886 -3.23511958 6.27845212 -7 8 C-6.02133662 6.85373678 -5.04205413 5.70800212 -4.0625 4.5625 C-3.51722656 3.92441406 -2.97195313 3.28632812 -2.41015625 2.62890625 C-1.63204305 1.73008851 -0.84063472 0.84063472 0 0 Z " fill="#141414" transform="translate(502,754)"/>
</svg>
